<svg width="66" height="20" viewBox="0 0 66 20" fill="none" xmlns="http://www.w3.org/2000/svg">
<path d="M5.216 19V12.832H11.24V8.896H5.216V5.704H12.416V1.768H0.68V19H5.216ZM19.1328 3.088C19.1328 1.72 18.0528 0.735999 16.4928 0.735999C14.9328 0.735999 13.8528 1.72 13.8528 3.088C13.8528 4.432 14.9328 5.416 16.4928 5.416C18.0528 5.416 19.1328 4.432 19.1328 3.088ZM18.5808 19V6.088H14.4768V19H18.5808ZM25.3777 12.208C25.3777 10.264 26.2897 9.544 27.2977 9.544C28.5457 9.544 29.1217 10.432 29.1217 12.064V19H33.2257V10.696C33.2257 7.552 31.4257 5.848 28.8817 5.848C27.2497 5.848 26.0497 6.52 25.0417 7.648V6.088H21.2737V19H25.3777V12.208ZM40.4609 3.088C40.4609 1.72 39.3809 0.735999 37.8209 0.735999C36.2609 0.735999 35.1809 1.72 35.1809 3.088C35.1809 4.432 36.2609 5.416 37.8209 5.416C39.3809 5.416 40.4609 4.432 40.4609 3.088ZM39.9089 19V6.088H35.8049V19H39.9089ZM51.2658 14.968C50.8098 15.256 50.1618 15.424 49.4898 15.424C48.3618 15.424 47.8338 14.848 47.8338 13.6V9.664H51.3618V6.088H47.8338V2.296H43.7298V6.088H41.3298V9.664H43.7298V14.56C43.7298 17.512 45.4338 19.24 48.3378 19.24C49.4898 19.24 50.3538 19.048 51.2658 18.544V14.968ZM58.7932 19.216C62.0092 19.216 64.2892 17.56 65.0812 14.608H60.9772C60.6172 15.544 59.8492 16.024 58.6972 16.024C57.3772 16.024 56.6092 15.208 56.3932 13.576H65.1532C65.8972 9.328 63.0412 5.848 58.7692 5.848C54.9292 5.848 52.1452 8.656 52.1452 12.52C52.1452 16.528 54.8092 19.216 58.7932 19.216ZM58.6732 8.872C59.8972 8.872 60.7132 9.712 60.7612 11.008H56.4412C56.7292 9.568 57.4492 8.872 58.6732 8.872Z" fill="url(#paint0_linear_1322_45)"/>
<defs>
<linearGradient id="paint0_linear_1322_45" x1="2.29508" y1="-4.72727" x2="69.518" y2="27.2482" gradientUnits="userSpaceOnUse">
<stop stop-color="#B182FF"/>
<stop offset="0.5" stop-color="#8310C9"/>
<stop offset="1" stop-color="#5315D9"/>
</linearGradient>
</defs>
</svg>
