<svg width="511" height="626" viewBox="0 0 511 626" fill="none" xmlns="http://www.w3.org/2000/svg">
<rect x="30.5979" y="1.64032" width="479.425" height="600.41" transform="rotate(2.77416 30.5979 1.64032)" fill="#FAFAFB" stroke="black" stroke-width="1.43541"/>
<g clip-path="url(#clip0_1322_9)">
<path d="M398.564 495.383L398.353 495.984L397.496 513.678L397.669 513.866L406.217 509.414L398.564 495.383Z" fill="#8247E5"/>
<path d="M398.564 495.384L389.59 508.609L397.668 513.866L398.084 505.278L398.564 495.384Z" fill="#B591F0"/>
<path d="M397.593 515.425L397.485 515.544L397.18 521.846L397.268 522.147L406.147 510.976L397.593 515.425Z" fill="#8247E5"/>
<path d="M397.266 522.146L397.592 515.424L389.514 510.169L397.266 522.146Z" fill="#B591F0"/>
<path d="M397.668 513.867L406.216 509.415L398.084 505.279L397.668 513.867Z" fill="#3C1281"/>
<path d="M389.591 508.609L397.669 513.867L398.085 505.279L389.591 508.609Z" fill="#8247E5"/>
</g>
<defs>
<clipPath id="clip0_1322_9">
<rect width="17.0231" height="27.3401" fill="white" transform="translate(389.9 494.625) rotate(2.77416)"/>
</clipPath>
</defs>
</svg>
